<?xml version="1.0" encoding="UTF-8"?>
<svg id="Layer_2" data-name="Layer 2" xmlns="http://www.w3.org/2000/svg" viewBox="0 0 1420.08 167.2">
  <defs>
    <style>
      .cls-1 {
        fill: #fff;
      }
    </style>
  </defs>
  <g id="Camada_1" data-name="Camada 1">
    <g>
      <path class="cls-1" d="M0,9.9h118.8v37.4H40.7v23.1h62.7v33h-62.7v23.1h78.1v37.4H0V9.9Z"/>
      <path class="cls-1" d="M194.7,167.2c-8.51,0-16.5-1.62-23.98-4.84-7.48-3.22-14.01-7.59-19.58-13.09-5.58-5.5-9.98-11.91-13.2-19.25-3.23-7.33-4.84-15.1-4.84-23.32s1.61-15.98,4.84-23.32c3.22-7.33,7.62-13.75,13.2-19.25,5.57-5.5,12.1-9.86,19.58-13.09,7.48-3.22,15.47-4.84,23.98-4.84,6.6,0,12.5.7,17.71,2.09,5.21,1.4,9.86,3.19,13.97,5.39,4.1,2.2,7.62,4.73,10.56,7.59,2.93,2.86,5.5,5.76,7.7,8.69,4.98,7.04,8.5,14.89,10.56,23.54h-38.5c-1.17-2.78-2.79-5.35-4.84-7.7-1.76-1.9-4.04-3.67-6.82-5.28-2.79-1.61-6.24-2.42-10.34-2.42-3.08,0-6.02.66-8.8,1.98-2.79,1.32-5.25,3.23-7.37,5.72-2.13,2.5-3.82,5.5-5.06,9.02-1.25,3.52-1.87,7.48-1.87,11.88s.62,8.36,1.87,11.88c1.24,3.52,2.93,6.53,5.06,9.02,2.12,2.5,4.58,4.4,7.37,5.72,2.78,1.32,5.72,1.98,8.8,1.98,4.4,0,8.03-.77,10.89-2.31,2.86-1.54,5.09-3.33,6.71-5.39,1.9-2.2,3.37-4.76,4.4-7.7h38.5c-2.06,8.8-5.58,16.72-10.56,23.76-2.2,2.94-4.77,5.83-7.7,8.69-2.94,2.86-6.46,5.39-10.56,7.59-4.11,2.2-8.77,3.96-13.97,5.28-5.21,1.32-11.11,1.98-17.71,1.98Z"/>
      <path class="cls-1" d="M330,167.2c-9.1,0-17.53-1.62-25.3-4.84-7.78-3.22-14.52-7.59-20.24-13.09-5.72-5.5-10.2-11.91-13.42-19.25-3.23-7.33-4.84-15.1-4.84-23.32s1.61-15.98,4.84-23.32c3.22-7.33,7.7-13.75,13.42-19.25,5.72-5.5,12.46-9.86,20.24-13.09,7.77-3.22,16.2-4.84,25.3-4.84s17.52,1.62,25.3,4.84c7.77,3.23,14.52,7.59,20.24,13.09s10.19,11.92,13.42,19.25c3.22,7.33,4.84,15.11,4.84,23.32s-1.62,15.99-4.84,23.32c-3.23,7.34-7.7,13.75-13.42,19.25s-12.47,9.87-20.24,13.09c-7.78,3.22-16.21,4.84-25.3,4.84ZM330,135.3c7.18,0,13.2-2.56,18.04-7.7,4.84-5.13,7.26-12.1,7.26-20.9s-2.42-15.76-7.26-20.9c-4.84-5.13-10.86-7.7-18.04-7.7s-13.2,2.57-18.04,7.7c-4.84,5.13-7.26,12.1-7.26,20.9s2.42,15.77,7.26,20.9c4.84,5.14,10.85,7.7,18.04,7.7Z"/>
      <path class="cls-1" d="M410.29,49.5h37.4v15.4h2.2c1.9-3.52,4.4-6.6,7.48-9.24,2.64-2.34,6.01-4.51,10.12-6.49,4.1-1.98,9.24-2.97,15.4-2.97,7.18,0,13.09,1.1,17.71,3.3,4.62,2.2,8.32,4.62,11.11,7.26,3.22,3.08,5.72,6.53,7.48,10.34h2.2c1.76-3.81,4.18-7.26,7.26-10.34,2.64-2.64,6.19-5.06,10.67-7.26,4.47-2.2,10.23-3.3,17.27-3.3,13.34,0,23.83,4,31.46,11.99,7.62,8,11.44,19.77,11.44,35.31v70.4h-37.4v-64.9c0-7.18-1.54-12.46-4.62-15.84-3.08-3.37-7.41-5.06-12.98-5.06-6.16,0-11.19,2.09-15.07,6.27-3.89,4.18-5.83,10.16-5.83,17.93v61.6h-37.4v-64.9c0-7.18-1.54-12.46-4.62-15.84-3.08-3.37-7.41-5.06-12.98-5.06-6.16,0-11.19,2.09-15.07,6.27-3.89,4.18-5.83,10.16-5.83,17.93v61.6h-37.4V49.5Z"/>
      <path class="cls-1" d="M667.69,9.9h40.7v154h-40.7V9.9Z"/>
      <path class="cls-1" d="M729.29,49.5h37.4v15.4h2.2c2.05-3.52,4.69-6.6,7.92-9.24,2.79-2.34,6.3-4.51,10.56-6.49,4.25-1.98,9.46-2.97,15.62-2.97,13.34,0,23.83,4,31.46,11.99,7.62,8,11.44,19.77,11.44,35.31v70.4h-37.4v-64.9c0-6.6-1.76-11.73-5.28-15.4-3.52-3.67-8.36-5.5-14.52-5.5s-11.37,2.28-15.62,6.82c-4.26,4.55-6.38,10.71-6.38,18.48v60.5h-37.4V49.5Z"/>
      <path class="cls-1" d="M914.09,167.2c-6.46,0-12.25-.59-17.38-1.76-5.14-1.18-9.68-2.71-13.64-4.62-3.96-1.9-7.37-4.07-10.23-6.49-2.86-2.42-5.32-4.87-7.37-7.37-4.84-5.86-8.07-12.68-9.68-20.46h37.4c.73,2.35,1.98,4.4,3.74,6.16,1.61,1.62,3.77,3.01,6.49,4.18,2.71,1.17,6.27,1.76,10.67,1.76,5.57,0,9.53-.73,11.88-2.2,2.34-1.46,3.52-3.3,3.52-5.5,0-2.49-1.69-4.47-5.06-5.94-3.38-1.46-7.59-2.78-12.65-3.96-5.06-1.17-10.53-2.53-16.39-4.07-5.87-1.54-11.33-3.74-16.39-6.6-5.06-2.86-9.28-6.56-12.65-11.11-3.38-4.54-5.06-10.48-5.06-17.82,0-4.54,1.02-8.91,3.08-13.09,2.05-4.18,5.13-7.92,9.24-11.22,4.1-3.3,9.24-5.94,15.4-7.92,6.16-1.98,13.42-2.97,21.78-2.97,6.16,0,11.69.55,16.61,1.65,4.91,1.1,9.27,2.57,13.09,4.4,3.81,1.84,7.08,3.93,9.79,6.27,2.71,2.35,5.09,4.7,7.15,7.04,4.54,5.72,7.7,12.1,9.46,19.14h-36.3c-.59-2.05-1.62-3.88-3.08-5.5-1.18-1.32-2.94-2.56-5.28-3.74-2.35-1.17-5.43-1.76-9.24-1.76-4.4,0-7.7.74-9.9,2.2-2.2,1.47-3.3,3.3-3.3,5.5,0,2.64,1.68,4.62,5.06,5.94,3.37,1.32,7.59,2.53,12.65,3.63,5.06,1.1,10.52,2.39,16.39,3.85,5.86,1.47,11.33,3.56,16.39,6.27,5.06,2.71,9.27,6.34,12.65,10.89,3.37,4.55,5.06,10.49,5.06,17.82,0,4.99-1.1,9.72-3.3,14.19-2.2,4.48-5.54,8.44-10.01,11.88-4.48,3.45-10.09,6.2-16.83,8.25-6.75,2.05-14.67,3.08-23.76,3.08Z"/>
      <path class="cls-1" d="M999.89,37.4c-6.16,0-11.19-1.87-15.07-5.61-3.89-3.74-5.83-8.1-5.83-13.09s1.94-9.53,5.83-13.2c3.88-3.66,8.91-5.5,15.07-5.5s11.18,1.84,15.07,5.5c3.88,3.67,5.83,8.07,5.83,13.2s-1.95,9.35-5.83,13.09c-3.89,3.74-8.91,5.61-15.07,5.61ZM981.19,49.5h37.4v114.4h-37.4V49.5Z"/>
      <path class="cls-1" d="M1083.49,167.2c-6.9,0-13.39-1.4-19.47-4.18-6.09-2.78-11.44-6.78-16.06-11.99-4.62-5.2-8.29-11.55-11-19.03-2.72-7.48-4.07-15.91-4.07-25.3s1.35-17.82,4.07-25.3c2.71-7.48,6.38-13.82,11-19.03,4.62-5.2,9.97-9.2,16.06-11.99,6.08-2.79,12.57-4.18,19.47-4.18,5.72,0,10.7.99,14.96,2.97,4.25,1.98,7.84,4.15,10.78,6.49,3.37,2.64,6.16,5.72,8.36,9.24h2.2V9.9h37.4v154h-37.4v-15.4h-2.2c-2.2,3.67-4.99,6.82-8.36,9.46-2.94,2.35-6.53,4.48-10.78,6.38-4.26,1.9-9.24,2.86-14.96,2.86ZM1095.58,135.3c7.18,0,13.01-2.42,17.49-7.26,4.47-4.84,6.71-11.95,6.71-21.34s-2.24-16.5-6.71-21.34c-4.48-4.84-10.31-7.26-17.49-7.26s-13.02,2.42-17.49,7.26c-4.48,4.84-6.71,11.96-6.71,21.34s2.23,16.5,6.71,21.34c4.47,4.84,10.3,7.26,17.49,7.26Z"/>
      <path class="cls-1" d="M1231.98,167.2c-8.8,0-17.02-1.62-24.64-4.84-7.63-3.22-14.27-7.59-19.91-13.09-5.65-5.5-10.09-11.91-13.31-19.25-3.23-7.33-4.84-15.1-4.84-23.32s1.61-15.98,4.84-23.32c3.22-7.33,7.66-13.75,13.31-19.25,5.64-5.5,12.28-9.86,19.91-13.09,7.62-3.22,15.84-4.84,24.64-4.84s17.45,1.62,25.08,4.84c7.62,3.23,14.22,7.59,19.8,13.09,5.57,5.5,9.93,11.92,13.09,19.25,3.15,7.33,4.73,15.11,4.73,23.32v6.6h-86.9c1.17,7.78,3.85,13.75,8.03,17.93,4.18,4.18,9.57,6.27,16.17,6.27,4.4,0,8.03-.58,10.89-1.76,2.86-1.17,5.09-2.56,6.71-4.18,1.9-1.76,3.37-3.81,4.4-6.16h39.6c-2.64,7.92-6.6,14.89-11.88,20.9-2.2,2.64-4.88,5.21-8.03,7.7-3.16,2.5-6.75,4.73-10.78,6.71-4.04,1.98-8.62,3.55-13.75,4.73-5.14,1.17-10.86,1.76-17.16,1.76ZM1255.08,94.6c-1.18-4.98-3.78-9.35-7.81-13.09-4.04-3.74-9.13-5.61-15.29-5.61s-11.26,1.87-15.29,5.61c-4.04,3.74-6.64,8.11-7.81,13.09h46.2Z"/>
      <path class="cls-1" d="M1307.88,49.5h36.3v16.5h2.2c1.32-3.52,3.3-6.6,5.94-9.24,2.2-2.34,5.06-4.69,8.58-7.04,3.52-2.34,7.99-3.52,13.42-3.52h11.66v36.3h-18.7c-6.6,0-11.92,2.05-15.95,6.13-4.04,4.09-6.05,9.48-6.05,16.17v59.1h-37.4V49.5Z"/>
      <path class="cls-1" d="M1400.29,167.2c-5.58,0-10.27-1.91-14.08-5.72-3.82-3.81-5.72-8.5-5.72-14.08s1.9-10.26,5.72-14.08c3.81-3.81,8.5-5.72,14.08-5.72s10.26,1.91,14.08,5.72c3.81,3.82,5.72,8.51,5.72,14.08s-1.91,10.27-5.72,14.08c-3.82,3.81-8.51,5.72-14.08,5.72Z"/>
    </g>
  </g>
</svg>